<?xml version="1.0" encoding="UTF-8"?>
<svg version="1.1" viewBox="0 0 500 500" xml:space="preserve" xmlns="http://www.w3.org/2000/svg">
  <defs><clipPath id="a">
      <path d="m0 1500h1500v-1500h-1500z"/>
    </clipPath></defs>
  
  <g transform="matrix(1.3333 0 0 -1.3333 0 2e3)">
    <g transform="matrix(1.151 0 0 1.1504 -264.8 -23.769)" clip-path="url(#a)">
    <g transform="matrix(1.001 0 0 .99412 -326.33 330.65)" fill="none" stroke="#fff" stroke-linecap="round" stroke-width="32.589"><path d="m637.74 981.94-0.57729-265.31a28.78 28.78 150.06 0 1 43.078-24.809c28.712 16.132 54.741 29.882 54.741 29.882" stroke-linejoin="round" stroke-miterlimit="90"/><path d="m800.37 688.52-0.28728 265.75a29.468 29.468 149.55 0 1-43.77 25.732l-54.217-30.097" stroke-miterlimit="4.6"/><path d="m702.23 826.4 32.737 17.377" stroke-linejoin="round"/><path d="m572.15 884.19-5e-3 -0.15569" stroke-linejoin="round"/><path d="m865.07 786.69-0.0317 8e-3" stroke-linejoin="round"/></g></g>
  </g>
</svg>
